PathFileType	4	(X/Y/Z)	s01c0301.trc
DataRate	CameraRate	NumFrames	NumMarkers	Units	OrigDataRate	OrigDataStartFrame	OrigNumFrames
200	200	4	48	mm	200	1250	2000
Frame#	Time	racr			lacr			c7			jug			rlel			rdr			llel			ldr			s2			lic			ric			lasi			rasi			rpsi			lpsi			rgt			lgt			rth1			rth2			rth3			rth4			rlfc			rsh1			rsh2			rsh3			rsh4			rlmal			rmmal			rcal			rtoe			rmt5			lth1			lth2			lth4			lth3			llfc			lsh1			lsh2			lsh3			lsh4			llmal			lmmal			lcal			ltoe			lmt5			SBIKE			LBIKE			RBIKE			
		X1	Y1	Z1	X2	Y2	Z2	X3	Y3	Z3	X4	Y4	Z4	X5	Y5	Z5	X6	Y6	Z6	X7	Y7	Z7	X8	Y8	Z8	X9	Y9	Z9	X10	Y10	Z10	X11	Y11	Z11	X12	Y12	Z12	X13	Y13	Z13	X14	Y14	Z14	X15	Y15	Z15	X16	Y16	Z16	X17	Y17	Z17	X18	Y18	Z18	X19	Y19	Z19	X20	Y20	Z20	X21	Y21	Z21	X22	Y22	Z22	X23	Y23	Z23	X24	Y24	Z24	X25	Y25	Z25	X26	Y26	Z26	X27	Y27	Z27	X28	Y28	Z28	X29	Y29	Z29	X30	Y30	Z30	X31	Y31	Z31	X32	Y32	Z32	X33	Y33	Z33	X34	Y34	Z34	X35	Y35	Z35	X36	Y36	Z36	X37	Y37	Z37	X38	Y38	Z38	X39	Y39	Z39	X40	Y40	Z40	X41	Y41	Z41	X42	Y42	Z42	X43	Y43	Z43	X44	Y44	Z44	X45	Y45	Z45	X46	Y46	Z46	X47	Y47	Z47	X48	Y48	Z48	
1250	6.2500	713.600878	1369.572614	-123.101117	749.303204	1304.425865	-449.843834	715.724513	1409.063126	-288.093189	690.628393	1244.729299	-275.656526	616.405448	1098.969915	-13.876433	729.590837	872.801826	-82.943864	644.964338	1061.090760	-584.096220	721.597316	852.256937	-467.662638	173.835258	1225.987754	-311.164731	345.766350	1229.849222	-480.367587	322.643009	1210.396594	-148.924828	343.424474	1173.273653	-455.450661	352.326357	1166.544288	-181.458879	204.545465	1261.263164	-257.493781	204.072058	1271.019009	-363.278922	268.945730	1097.372498	-131.471979	283.376806	1095.517285	-503.488070	334.882294	982.139361	-114.815182	381.500776	913.619249	-119.409600	426.834719	835.845681	-130.237548	428.066445	941.984559	-132.870582	462.345733	728.468342	-148.655932	412.187590	622.334605	-105.640125	386.517607	541.428746	-104.361837	351.407022	459.870926	-107.912540	428.933453	524.902768	-144.403909	288.026574	348.975666	-117.337266	338.990200	352.103376	-193.007232	241.164135	329.138930	-168.409947	494.408214	236.120808	-140.296020	383.620286	238.343722	-74.511636	336.555549	980.478243	-512.687534	397.838049	915.984807	-508.695144	436.136897	951.783903	-497.509396	447.707743	848.222812	-493.727172	478.856589	740.676388	-467.777319	368.980375	701.496495	-492.937010	296.922626	655.664138	-478.006684	222.505184	615.946763	-459.243717	329.339326	614.358619	-445.717385	117.603903	558.123790	-428.974600	145.503950	543.690761	-351.422467	68.121212	578.771336	-382.711122	192.944284	330.159153	-377.459513	120.552297	406.567949	-447.095651	-228.154658	890.817520	-253.650100	-21.354350	80.273846	-454.332578	-21.340564	80.347344	-54.142334	
1251	6.2550	714.862223	1369.051318	-123.184709	749.353117	1304.655779	-450.459597	716.703179	1408.574840	-288.028967	691.730015	1244.102479	-275.836678	617.734337	1098.338146	-14.050670	730.079696	871.645164	-83.097641	644.918586	1060.972731	-583.952418	723.046094	852.900687	-467.641876	174.499296	1224.386289	-308.654817	345.511794	1230.125931	-478.569921	324.211618	1208.664330	-147.056071	343.504930	1173.052831	-453.792603	353.515116	1164.431540	-179.550316	205.637418	1259.343783	-255.014464	204.420169	1269.802667	-360.549882	269.128702	1094.850145	-130.346696	284.210591	1095.650978	-502.319707	332.602619	978.902808	-113.226649	377.559035	909.343728	-117.726859	421.153169	830.431496	-128.579806	424.991395	936.609199	-131.082679	455.250204	722.152513	-147.079385	406.427981	615.186185	-104.181360	381.509978	533.993261	-103.157294	347.176972	452.127299	-106.792805	423.391642	518.080892	-143.935160	285.038381	340.749112	-117.485255	335.145588	344.017657	-192.268601	237.220274	323.879065	-166.545913	489.412481	225.041969	-140.198539	378.855846	229.208883	-74.236136	339.530230	981.731220	-512.468833	402.799010	918.964875	-510.019812	440.189003	955.948855	-498.535238	454.669248	852.598947	-495.717770	486.777827	746.010955	-470.169668	375.719513	708.027272	-494.690251	303.147268	663.057543	-479.239949	228.383615	624.107849	-459.812094	335.492319	621.358158	-447.747835	122.938356	567.185142	-429.329504	151.455732	552.733385	-351.543163	73.804046	587.907852	-382.745611	198.787806	339.353763	-377.514667	126.369936	415.757091	-447.164299	-228.094101	890.817918	-253.517192	-21.336687	80.287067	-454.304337	-21.342653	80.308390	-54.126841	
1252	6.2600	716.096028	1368.479343	-123.529491	749.308187	1304.999900	-451.132536	717.706791	1408.115998	-287.975024	692.766008	1243.844430	-275.939469	619.289631	1097.775547	-14.307238	730.506076	870.597886	-83.172802	644.867874	1060.859771	-583.659233	722.601900	852.702984	-466.878838	175.123812	1222.861428	-305.982518	345.238709	1230.470027	-476.642416	325.785365	1207.117428	-145.181016	343.646525	1172.804901	-452.057663	354.523947	1162.618393	-176.886305	206.745204	1257.564696	-252.427985	204.737426	1268.663823	-357.744785	269.151889	1092.576108	-129.141169	285.001233	1095.979821	-501.401666	330.137090	975.948785	-111.612381	373.476069	905.255750	-115.916556	415.228154	825.306611	-126.650860	421.560937	931.396456	-129.260420	448.089853	715.756332	-145.590248	399.979465	608.445322	-102.447814	375.882255	526.947543	-101.726569	342.428709	444.666335	-105.474599	417.693030	511.749736	-142.702641	281.127764	333.227367	-116.988428	330.956120	336.613673	-191.157190	233.588100	317.921085	-165.681688	483.867469	214.073915	-140.306045	373.645411	220.195533	-73.787587	342.528916	983.120700	-511.903858	407.782165	922.484994	-511.407929	444.278234	960.338670	-499.553728	461.712504	857.483999	-497.817758	494.433940	751.646074	-472.625271	382.580435	714.788225	-496.325549	309.811811	670.674291	-480.432797	233.147154	632.937926	-460.330225	341.892679	628.338026	-449.391583	129.299078	575.888251	-429.428331	158.466912	561.813818	-351.350132	80.184985	596.651468	-382.684729	205.165092	348.173013	-377.520480	132.650312	424.612698	-447.107464	-227.997864	890.843730	-253.388347	-21.310227	80.299512	-454.277398	-21.305533	80.303219	-54.088593	
1253	6.2650	717.409942	1367.809020	-123.947541	749.225794	1305.593071	-451.983986	718.551523	1407.840273	-288.114022	693.811816	1243.667769	-276.265878	621.044164	1097.334153	-14.655540	731.001777	869.483333	-83.320697	644.757901	1060.759282	-583.260443	722.216706	852.591984	-466.274199	175.833655	1221.499080	-303.267425	344.894872	1230.638043	-474.681745	327.511296	1205.648032	-143.345759	343.782862	1172.545620	-450.244884	355.873432	1160.526711	-175.307020	208.006189	1255.935349	-249.793849	205.079095	1267.586142	-354.887311	269.397766	1090.448662	-127.833561	285.641511	1096.165198	-500.072834	327.641473	973.173125	-109.730660	369.244184	901.434829	-113.973690	409.010319	820.554880	-124.555167	417.935879	926.395909	-127.220421	440.196247	709.808781	-143.515953	392.574267	602.271558	-100.226409	369.621816	520.458671	-99.768887	337.177857	437.755804	-103.717393	411.612583	505.775323	-140.884857	277.036263	326.240323	-116.073631	326.443976	329.870261	-189.716795	229.706457	312.578170	-164.372474	477.745159	203.781880	-139.538407	367.828253	211.433593	-73.668557	345.553192	985.199648	-511.771211	412.554080	926.472127	-512.753570	448.148512	965.132603	-500.228471	468.331427	862.803696	-499.748075	501.767295	757.518389	-475.014704	389.580827	721.704305	-498.021800	316.585688	678.205777	-481.599196	241.957617	639.935328	-459.673372	348.635894	635.354065	-451.011904	136.860010	584.177262	-429.071159	165.166971	569.943878	-351.551526	87.139534	605.079361	-382.590105	212.147265	356.636073	-377.560877	139.691882	433.120823	-447.119731	-227.906311	890.854148	-253.260819	-21.278938	80.331885	-454.242442	-21.271191	80.296476	-54.061751	
